<mxfile host="app.diagrams.net" modified="2023-09-07T15:03:24.899Z" agent="Mozilla/5.0 (Windows NT 10.0; Win64; x64) AppleWebKit/537.36 (KHTML, like Gecko) Chrome/116.0.0.0 Safari/537.36" etag="Zv5og5PB9t6Nn0QHUPtn" version="21.7.2" type="github">
  <diagram id="prtHgNgQTEPvFCAcTncT" name="Page-1">
    <mxGraphModel dx="1257" dy="691" grid="1" gridSize="10" guides="1" tooltips="1" connect="1" arrows="1" fold="1" page="1" pageScale="1" pageWidth="827" pageHeight="1169" math="0" shadow="0">
      <root>
        <mxCell id="0" />
        <mxCell id="1" parent="0" />
        <mxCell id="FzEf7iByXR1YTfTH5Bd--1" value="PBI Officer" style="shape=umlActor;verticalLabelPosition=bottom;verticalAlign=top;html=1;outlineConnect=0;" vertex="1" parent="1">
          <mxGeometry x="130" y="255" width="30" height="60" as="geometry" />
        </mxCell>
        <mxCell id="FzEf7iByXR1YTfTH5Bd--3" value="" style="endArrow=classic;html=1;rounded=0;" edge="1" parent="1">
          <mxGeometry width="50" height="50" relative="1" as="geometry">
            <mxPoint x="170" y="265" as="sourcePoint" />
            <mxPoint x="270" y="165" as="targetPoint" />
          </mxGeometry>
        </mxCell>
        <mxCell id="FzEf7iByXR1YTfTH5Bd--4" value="Press relase&amp;nbsp;&lt;br&gt;(in text format)" style="rounded=1;whiteSpace=wrap;html=1;" vertex="1" parent="1">
          <mxGeometry x="270" y="105" width="120" height="60" as="geometry" />
        </mxCell>
        <mxCell id="FzEf7iByXR1YTfTH5Bd--5" value="" style="endArrow=classic;html=1;rounded=0;" edge="1" parent="1">
          <mxGeometry width="50" height="50" relative="1" as="geometry">
            <mxPoint x="390" y="134.5" as="sourcePoint" />
            <mxPoint x="440" y="135" as="targetPoint" />
          </mxGeometry>
        </mxCell>
        <mxCell id="FzEf7iByXR1YTfTH5Bd--6" value="Converts the text format into 13 Regional Languages&amp;nbsp;audios" style="rounded=1;whiteSpace=wrap;html=1;" vertex="1" parent="1">
          <mxGeometry x="440" y="105" width="150" height="60" as="geometry" />
        </mxCell>
        <mxCell id="FzEf7iByXR1YTfTH5Bd--7" value="" style="endArrow=classic;html=1;rounded=0;" edge="1" parent="1">
          <mxGeometry width="50" height="50" relative="1" as="geometry">
            <mxPoint x="329.5" y="165" as="sourcePoint" />
            <mxPoint x="330" y="225" as="targetPoint" />
            <Array as="points">
              <mxPoint x="329.5" y="215" />
            </Array>
          </mxGeometry>
        </mxCell>
        <mxCell id="FzEf7iByXR1YTfTH5Bd--13" value="" style="edgeStyle=orthogonalEdgeStyle;rounded=0;orthogonalLoop=1;jettySize=auto;html=1;" edge="1" parent="1" source="FzEf7iByXR1YTfTH5Bd--8" target="FzEf7iByXR1YTfTH5Bd--10">
          <mxGeometry relative="1" as="geometry" />
        </mxCell>
        <mxCell id="FzEf7iByXR1YTfTH5Bd--8" value="By using a promt create the images" style="rounded=1;whiteSpace=wrap;html=1;" vertex="1" parent="1">
          <mxGeometry x="270" y="225" width="120" height="60" as="geometry" />
        </mxCell>
        <mxCell id="FzEf7iByXR1YTfTH5Bd--15" value="" style="edgeStyle=orthogonalEdgeStyle;rounded=0;orthogonalLoop=1;jettySize=auto;html=1;" edge="1" parent="1" source="FzEf7iByXR1YTfTH5Bd--10" target="FzEf7iByXR1YTfTH5Bd--14">
          <mxGeometry relative="1" as="geometry" />
        </mxCell>
        <mxCell id="FzEf7iByXR1YTfTH5Bd--10" value="Edit them with proper effects and with the subtitles" style="rounded=1;whiteSpace=wrap;html=1;" vertex="1" parent="1">
          <mxGeometry x="270" y="345" width="120" height="60" as="geometry" />
        </mxCell>
        <mxCell id="FzEf7iByXR1YTfTH5Bd--19" value="" style="edgeStyle=orthogonalEdgeStyle;rounded=0;orthogonalLoop=1;jettySize=auto;html=1;" edge="1" parent="1" source="FzEf7iByXR1YTfTH5Bd--14" target="FzEf7iByXR1YTfTH5Bd--18">
          <mxGeometry relative="1" as="geometry" />
        </mxCell>
        <mxCell id="FzEf7iByXR1YTfTH5Bd--14" value="Merge all of them&amp;nbsp;" style="rounded=1;whiteSpace=wrap;html=1;" vertex="1" parent="1">
          <mxGeometry x="270" y="465" width="120" height="60" as="geometry" />
        </mxCell>
        <mxCell id="FzEf7iByXR1YTfTH5Bd--17" value="" style="endArrow=classic;html=1;rounded=0;entryX=1;entryY=0.5;entryDx=0;entryDy=0;exitX=0.531;exitY=0.997;exitDx=0;exitDy=0;exitPerimeter=0;" edge="1" parent="1" source="FzEf7iByXR1YTfTH5Bd--6" target="FzEf7iByXR1YTfTH5Bd--14">
          <mxGeometry width="50" height="50" relative="1" as="geometry">
            <mxPoint x="510" y="175" as="sourcePoint" />
            <mxPoint x="570" y="335" as="targetPoint" />
            <Array as="points">
              <mxPoint x="520" y="495" />
            </Array>
          </mxGeometry>
        </mxCell>
        <mxCell id="FzEf7iByXR1YTfTH5Bd--18" value="Make a folder which consits of all the videos with there repetive&amp;nbsp;languages" style="whiteSpace=wrap;html=1;rounded=1;" vertex="1" parent="1">
          <mxGeometry x="270" y="605" width="120" height="60" as="geometry" />
        </mxCell>
        <mxCell id="FzEf7iByXR1YTfTH5Bd--22" value="" style="endArrow=classic;html=1;rounded=0;exitX=0;exitY=0.5;exitDx=0;exitDy=0;" edge="1" parent="1" source="FzEf7iByXR1YTfTH5Bd--18">
          <mxGeometry relative="1" as="geometry">
            <mxPoint x="260" y="625" as="sourcePoint" />
            <mxPoint x="145" y="365" as="targetPoint" />
            <Array as="points">
              <mxPoint x="145" y="635" />
            </Array>
          </mxGeometry>
        </mxCell>
        <mxCell id="FzEf7iByXR1YTfTH5Bd--23" value="Wait for the confirrmation&amp;nbsp;" style="edgeLabel;resizable=0;html=1;align=center;verticalAlign=middle;" connectable="0" vertex="1" parent="FzEf7iByXR1YTfTH5Bd--22">
          <mxGeometry relative="1" as="geometry" />
        </mxCell>
        <mxCell id="FzEf7iByXR1YTfTH5Bd--27" value="" style="endArrow=none;html=1;rounded=0;endFill=0;" edge="1" parent="1">
          <mxGeometry width="50" height="50" relative="1" as="geometry">
            <mxPoint x="144" y="240" as="sourcePoint" />
            <mxPoint x="680" y="40" as="targetPoint" />
            <Array as="points">
              <mxPoint x="144" y="40" />
            </Array>
          </mxGeometry>
        </mxCell>
        <mxCell id="FzEf7iByXR1YTfTH5Bd--30" value="" style="endArrow=classic;html=1;rounded=0;" edge="1" parent="1">
          <mxGeometry width="50" height="50" relative="1" as="geometry">
            <mxPoint x="680" y="40" as="sourcePoint" />
            <mxPoint x="680" y="120" as="targetPoint" />
            <Array as="points" />
          </mxGeometry>
        </mxCell>
        <mxCell id="FzEf7iByXR1YTfTH5Bd--31" value="After conformation from the PBI Officer" style="rounded=1;whiteSpace=wrap;html=1;" vertex="1" parent="1">
          <mxGeometry x="340" y="10" width="120" height="60" as="geometry" />
        </mxCell>
        <mxCell id="FzEf7iByXR1YTfTH5Bd--33" value="Auto Uploading" style="swimlane;whiteSpace=wrap;html=1;" vertex="1" parent="1">
          <mxGeometry x="620" y="115" width="180" height="485" as="geometry" />
        </mxCell>
      </root>
    </mxGraphModel>
  </diagram>
</mxfile>
